<svg width="35" height="35" viewBox="0 0 35 35" fill="none" xmlns="http://www.w3.org/2000/svg">
<rect width="35" height="35" rx="5" fill="url(#paint0_linear_2_11)"/>
<path d="M7.12255 17.44C7.12255 15.36 7.57255 13.51 8.47255 11.89C9.37255 10.25 10.6226 8.98 12.2226 8.08C13.8426 7.16 15.6726 6.7 17.7126 6.7C20.2126 6.7 22.3526 7.36 24.1326 8.68C25.9126 10 27.1026 11.8 27.7026 14.08H22.0626C21.6426 13.2 21.0426 12.53 20.2626 12.07C19.5026 11.61 18.6326 11.38 17.6526 11.38C16.0726 11.38 14.7926 11.93 13.8126 13.03C12.8326 14.13 12.3426 15.6 12.3426 17.44C12.3426 19.28 12.8326 20.75 13.8126 21.85C14.7926 22.95 16.0726 23.5 17.6526 23.5C18.6326 23.5 19.5026 23.27 20.2626 22.81C21.0426 22.35 21.6426 21.68 22.0626 20.8H27.7026C27.1026 23.08 25.9126 24.88 24.1326 26.2C22.3526 27.5 20.2126 28.15 17.7126 28.15C15.6726 28.15 13.8426 27.7 12.2226 26.8C10.6226 25.88 9.37255 24.61 8.47255 22.99C7.57255 21.37 7.12255 19.52 7.12255 17.44Z" fill="white"/>
<defs>
<linearGradient id="paint0_linear_2_11" x1="1.40715e-06" y1="33.95" x2="35" y2="1.7026e-07" gradientUnits="userSpaceOnUse">
<stop stop-color="#2F2139"/>
<stop offset="0.643364" stop-color="#651BA8"/>
<stop offset="0.995354" stop-color="#5D00C2"/>
</linearGradient>
</defs>
</svg>
